<?xml version="1.0" encoding="UTF-8"?>
<svg id="Logo" xmlns="http://www.w3.org/2000/svg" viewBox="0 0 512 512">
  <defs>
    <style>
      .cls-1 {
        fill: #fff;
      }

      .cls-2 {
        fill: #2eaccf;
      }

      .cls-3 {
        fill: #005685;
      }
    </style>
  </defs>
  <rect class="cls-2" width="512" height="512"/>
  <g>
    <g>
      <path class="cls-1" d="m69.12,236.41c0-55.39,18.04-100.28,54.13-134.69,36.08-34.4,79.97-51.61,131.67-51.61s95.49,17.29,131.42,51.86c35.92,34.58,53.88,79.39,53.88,134.44s-17.96,99.78-53.88,134.19c-35.92,34.41-79.73,51.61-131.42,51.61s-95.59-17.2-131.67-51.61c-36.09-34.4-54.13-79.13-54.13-134.19Zm113.54-80.81c-20.64,18.63-30.97,45.4-30.97,80.31s10.32,61.6,30.97,80.06c20.64,18.46,44.73,27.69,72.25,27.69s51.52-9.23,72-27.69c20.47-18.46,30.71-45.14,30.71-80.06s-10.24-61.68-30.71-80.31c-20.48-18.63-44.48-27.95-72-27.95s-51.61,9.32-72.25,27.95Z"/>
      <g>
        <path class="cls-3" d="m434.13,248.57,6.41-11.25c-.01-.78-.03-1.55-.04-2.33-3.13-.12-6.35-.8-9.37-.27-12.79,2.24-23.61,16.63-31.03,26.46-5.51,7.3-10.63,14.9-16.46,21.93-5.87,7.07-13.43,11.13-24.67,9.84,8.71-5.26,16.13-10.19,18.22-19.66-8.05,8.8-17.53,14.29-31.07,13.76,13.52,16.24,29.29,28.12,44.07,41.42-.95,1.98-1.86,3.86-3.45,7.18,12.21-6.52,22.46-12.98,29.12-25.43,2.9,12.21.13,21.8-7.5,29.81-5.41,5.68-11.69,10.54-17.25,16.09-3.59,3.59-7.11,7.45-9.75,11.74-5.64,9.18-3.32,15.43,6.9,19.55-.77.92-1.46,1.74-2.32,2.76.73.29,1.2.63,1.67.64,4.82.14,8.47-1.78,10.78-6.12,3.14-5.89,3.11-12.13-.94-17.04-3.67-4.46-1.88-7.14.92-10.29,3.28-3.68,6.67-7.26,9.99-10.87,9.61,6.74,15.1,25.47,11.34,38.29-3.51,11.98-15,20.74-27.84,21.24-26.12,1.02-41.26-21.41-30.49-45.31,1.72-3.81,4.01-7.36,6.62-12.08-6.44-2.19-12.62-4.62-19-6.33-3.6-.97-5.3-2.69-6.67-6.14-2.44-6.18-5.73-12.02-9.59-17.48,1.59,8.55,3.77,17.03,4.67,25.65,2.37,22.71-1.64,44.78-7.37,66.69-1.98,7.56-3.2,15.38-4.05,23.16-.84,7.68.15,15.24,4.4,22.48-3.48-2.95-6.95-5.89-10.4-8.81.12,7.49,6.01,13.01,14.1,13.36,7.98.35,14.51-3.04,17.48-10,2.58-6.04,2.77-13.1,3.96-19.43,6.48,3.52,10.84,14.18,8.94,23.6-2.66,13.23-12.48,22.32-26.34,24.37-14.05,2.08-26.88-4.31-33.42-16.9-7.31-14.07-7-29.26-6.15-44.5.67-12.05,1.73-24.1,1.84-36.16.26-27.76-17.19-45.45-45.1-46.3-2.36-.07-4.73,0-7.09-.49,10.72-4.18,21.49-2.27,32.28-.2-12.52-8.31-25.94-9.63-39.47-3.5-20.11,9.11-30.25,25.41-30.67,47.31-.2,10.76,1.05,21.55,1.56,32.32.77,16.07,2.36,32.28-4.02,47.68-5.16,12.47-14.21,20.43-28.22,20.95-13.51.5-24.37-4.64-30.87-16.94-6.04-11.44-2.55-25.7,7.4-32.01,0,3.82-.18,7.67.04,11.5.58,10.33,9.21,18.57,19.38,18.7,8.95.11,14.3-4.7,15.56-13.85-3.55,3.11-7.21,6.32-10.87,9.52-.33-.31-.67-.62-1-.93,8.4-11.01,6.03-23.16,3.74-35.17-2.87-15.05-6.76-29.93-9.06-45.05-2.74-18.04-1.95-36.1,3.76-53.68.27-.82.35-1.71.52-2.56-.52-.24-1.04-.47-1.55-.71-2.83,5.88-5.91,11.65-8.39,17.68-1.29,3.15-2.81,4.92-6.29,5.82-6.31,1.63-12.44,4.01-19.42,6.33,1.47,2.42,2.47,4.05,3.45,5.69,5.82,9.81,8.73,20.15,5.1,31.43-4.79,14.87-20.63,23.4-36.48,19.83-16.37-3.68-26.61-17.31-24.89-33.16,1.09-10.11,5.66-19.89,12.38-26.36,3.67,4.08,7.35,8.15,11,12.25,2.54,2.85,3.38,5.3.38,8.93-4.41,5.34-4.25,13.34-.59,18.47,2.79,3.91,6.58,5.61,11.97,4.9-.73-1.17-1.29-2.06-1.85-2.96,9.83-5.26,11.92-11.9,5.42-21.26-3.9-5.62-9.37-10.17-14.19-15.15-5.2-5.37-11.05-10.23-15.54-16.13-5.16-6.77-6.52-14.86-3.9-24.71,6.73,12.07,16.89,18.47,28.32,23.76-.81-1.65-1.61-3.3-2.66-5.45,14.44-13.45,30.79-25.24,44.29-41.87-13.81,1-23.16-5.11-31.46-13.74,2.34,9.49,9.48,14.55,17.39,19.01-5.12,2.02-11.99,1.24-17.13-3.42-5.64-5.11-10.51-11.11-15.4-16.99-5.37-6.45-10.07-13.48-15.64-19.75-5.45-6.14-12.49-10.18-20.74-11.48-2.99-.47-6.13-.08-9.2-.08-.08.8-.16,1.61-.24,2.41,1.74.56,3.45,1.29,5.24,1.65,6.21,1.25,12.11,3.06,16.28,8.25,4.14,5.16,4.31,12.17.51,17.29-3.43,4.63-7.21,5.55-12.3,3.67,1.33-4.53,3.43-8.91,3.57-13.36.07-2.26-3.37-4.63-5.22-6.95-.42.26-.84.52-1.25.78.97,2.24,1.94,4.49,2.99,6.89-5.42-1.2-10.13-2.39-14.89-3.28-18.97-3.53-18.69-18.58-11.07-28.53,9.9-12.93,23.71-14.99,38.59-11.69,15.94,3.54,29.61,12.34,43.77,19.95,8.85,4.76,17.94,9.07,26.76,13.88,1.82.99,3.28,3.1,4.27,5.03,1.7,3.34,2.9,6.93,4.55,11.01.73-.99,1.06-1.23,1.08-1.5,1.13-11.36,1.89-12.06,13.39-12.17,10.99-.11,16.57,1.66,30.63,8.45-2.92-2.54-5.58-5.51-8.82-7.55-9.38-5.9-16.96-13.29-21.33-23.71-.47.11-.94.22-1.41.33.91,4.71,1.82,9.42,2.73,14.13-.37.22-.74.44-1.11.67-1.83-2.66-3.97-5.17-5.44-8.01-5.43-10.45-7-21.85-7.52-33.42-.88-19.47,1.81-38.4,10.59-55.97,14.57-29.12,41.06-43.15,74.39-41.02,40.38,2.58,63,29.25,70.51,65.28,4.24,20.36,4.25,40.74-3.1,60.55-1.68,4.52-4.66,8.55-7.04,12.81-.42-.25-.85-.5-1.27-.75.76-7.37,1.52-14.75,2.28-22.12-.43-.12-.87-.23-1.3-.35-3.16,8.02-6.33,16.05-9.49,24.07-.48-.12-.96-.25-1.44-.37-.13-2.22-.26-4.43-.33-5.75-6.03,7.24-12.35,14.83-18.33,22.01,4.55-2.16,9.37-5.42,14.66-6.71,6.64-1.62,13.67-1.8,20.55-2.25,5.11-.33,7.8,2.29,7.64,7.61-.04,1.4.34,2.82,1.65,4.66,1.16-2.22,2.95-4.33,3.36-6.68.98-5.59,4.65-7.71,9.36-10.05,13.75-6.81,26.98-14.7,40.74-21.5,8.47-4.18,19.7-13.72,28.77-16.31,11.14-3.19,22.55-2.32,31.79,5.34,4.39,3.64,8.22,9.03,10.1,14.4,3.34,9.55-10.37,17.76-20.29,20.81m-250.4,12.92c-2.06,11.94,6.85,21.25,18.42,19.92,3.49-.4,7.06-.06,10.48-.06-1.95-10.99-13.45-19.34-28.9-19.85Zm102.33,19.77c3.62,0,6.96-.38,10.18.07,11.89,1.65,21.7-8.69,18.32-19.53-13.63-.56-26.7,8.57-28.5,19.46Z"/>
        <path class="cls-3" d="m171.09,240.11c-12.21-12.65-16.26-27.85-19.22-43.52-.47,0-.95.01-1.42.02,0,3.79-.16,7.58.04,11.36.2,3.82.66,7.63,1.19,11.42.55,3.94,1.31,7.86,1.51,11.99-6.21-6.66-10.29-14.49-13.18-23-6.17-18.13-4.42-36.38-.87-54.68,2.4-12.35,5.21-24.66,6.78-37.12.87-6.93.29-14.26-.92-21.18-1.2-6.84-5.58-11.98-12.99-13.21-6.03-1-11.05.91-15.05,6.5-2.04,6.86,4.61,5.83,8.64,5.55.23.52,8.49-2.39,8.71-1.87-10.68,7.5-14.62,13.03-22.77,22.4-3.75-7.35-3.47-7.59-4.54-13.65-4.48-25.36,19.1-36.92,34.85-34.8,16.14,2.17,25.78,13.08,29.26,32.36,3.4,18.8,1.69,37.57-.49,56.29-3.15,27.14-5.54,54.22.45,81.3.21.96.03,2,.03,3.87Z"/>
        <path class="cls-3" d="m357.6,231.27c3.08-18.57,7.59-37.06,3.49-56.05-3.94,22.41-6.96,45.01-21.22,64.1.92-6.12,1.94-12.22,2.74-18.35,2.54-19.38,1.05-38.68-1.05-58-2.19-20.16-5.22-40.35-1.98-60.68,2.19-13.75,6.31-26.58,20.18-33.16,19.03-9.03,41.39,2.18,45.15,22.31,1.49,7.96,1.58,21.6-5.43,24.13-5.62-6.5-6.85-8.64-10.5-11.99-3.5-3.12-8.8-7.11-12.37-11.24,6,2.25,18.49,3.87,17.62-2.56-3.76-8.9-15.71-10.54-22.87-3.46-5.71,5.65-7.05,13.09-6.26,20.33,1.62,14.85,4.04,29.63,6.67,44.34,3.5,19.61,6.11,39.22-.93,58.48-2.89,7.9-7.49,15.16-11.31,22.72-.64-.3-1.29-.6-1.93-.89Z"/>
      </g>
    </g>
    <path class="cls-1" d="m189.72,265.37c14.92.1,26.39,8.29,28.99,19.68-3.36,0-6.91-.36-10.36.07-11.48,1.42-20.31-7.6-18.62-19.75Z"/>
    <path class="cls-1" d="m292.14,284.95c1.33-6.69,5.36-12.04,11.22-15.33,4.58-2.57,9.86-3.83,14.89-5.43,2.86-.91,3.89.68,3.89,3.66,0,10.24-8.67,18.16-18.68,17.15-3.61-.36-7.28-.06-11.32-.06Z"/>
  </g>
</svg>